<?xml version="1.0" encoding="UTF-8" standalone="no"?>
<!DOCTYPE svg PUBLIC "-//W3C//DTD SVG 1.1//EN"
 "http://www.w3.org/Graphics/SVG/1.1/DTD/svg11.dtd">
<!-- Generated by graphviz version 2.43.0 (0)
 -->
<!-- Title: %3 Pages: 1 -->
<svg width="576pt" height="129pt"
 viewBox="0.00 0.00 576.00 129.39" xmlns="http://www.w3.org/2000/svg" xmlns:xlink="http://www.w3.org/1999/xlink">
<g id="graph0" class="graph" transform="scale(0.5 0.5) rotate(0) translate(4 256)">
<title>%3</title>
<polygon fill="white" stroke="transparent" points="-4,4 -4,-256 1153.43,-256 1153.43,4 -4,4"/>
<!-- A -->
<g id="node1" class="node">
<title>A</title>
<ellipse fill="none" stroke="black" cx="905.04" cy="-162" rx="95.58" ry="18"/>
<text text-anchor="middle" x="905.04" y="-158.3" font-family="Times,serif" font-size="14.00">Google PAIR Team</text>
</g>
<!-- C -->
<g id="node4" class="node">
<title>C</title>
<ellipse fill="none" stroke="black" cx="522.04" cy="-90" rx="134.58" ry="18"/>
<text text-anchor="middle" x="522.04" y="-86.3" font-family="Times,serif" font-size="14.00">“Measuring Fairness” Tool</text>
</g>
<!-- A&#45;&gt;C -->
<g id="edge3" class="edge">
<title>A&#45;&gt;C</title>
<path fill="none" stroke="black" d="M838.77,-148.89C774.89,-137.21 677.92,-119.49 608.11,-106.73"/>
<polygon fill="black" stroke="black" points="608.48,-103.24 598.02,-104.89 607.23,-110.13 608.48,-103.24"/>
</g>
<!-- B1 -->
<g id="node2" class="node">
<title>B1</title>
<ellipse fill="none" stroke="black" cx="774.04" cy="-234" rx="128.88" ry="18"/>
<text text-anchor="middle" x="774.04" y="-230.3" font-family="Times,serif" font-size="14.00">ML Fairness Researchers</text>
</g>
<!-- B1&#45;&gt;A -->
<g id="edge1" class="edge">
<title>B1&#45;&gt;A</title>
<path fill="none" stroke="black" d="M805.09,-216.41C823.25,-206.71 846.34,-194.37 865.76,-183.99"/>
<polygon fill="black" stroke="black" points="867.5,-187.03 874.67,-179.23 864.2,-180.85 867.5,-187.03"/>
</g>
<!-- B2 -->
<g id="node3" class="node">
<title>B2</title>
<ellipse fill="none" stroke="black" cx="1035.04" cy="-234" rx="114.28" ry="18"/>
<text text-anchor="middle" x="1035.04" y="-230.3" font-family="Times,serif" font-size="14.00">Design Team (UX, Viz)</text>
</g>
<!-- B2&#45;&gt;A -->
<g id="edge2" class="edge">
<title>B2&#45;&gt;A</title>
<path fill="none" stroke="black" d="M1004.56,-216.59C986.55,-206.89 963.56,-194.51 944.21,-184.09"/>
<polygon fill="black" stroke="black" points="945.79,-180.97 935.33,-179.31 942.48,-187.13 945.79,-180.97"/>
</g>
<!-- F -->
<g id="node9" class="node">
<title>F</title>
<ellipse fill="none" stroke="black" cx="522.04" cy="-18" rx="157.87" ry="18"/>
<text text-anchor="middle" x="522.04" y="-14.3" font-family="Times,serif" font-size="14.00">Audience (Public, Practitioners)</text>
</g>
<!-- C&#45;&gt;F -->
<g id="edge8" class="edge">
<title>C&#45;&gt;F</title>
<path fill="none" stroke="black" d="M522.04,-71.7C522.04,-63.98 522.04,-54.71 522.04,-46.11"/>
<polygon fill="black" stroke="black" points="525.54,-46.1 522.04,-36.1 518.54,-46.1 525.54,-46.1"/>
</g>
<!-- D1 -->
<g id="node5" class="node">
<title>D1</title>
<ellipse fill="none" stroke="black" cx="89.04" cy="-162" rx="89.08" ry="18"/>
<text text-anchor="middle" x="89.04" y="-158.3" font-family="Times,serif" font-size="14.00">Fairness Metrics</text>
</g>
<!-- D1&#45;&gt;C -->
<g id="edge4" class="edge">
<title>D1&#45;&gt;C</title>
<path fill="none" stroke="black" d="M153.86,-149.62C164.92,-147.71 176.31,-145.78 187.04,-144 267.99,-130.58 360.07,-116.06 427.18,-105.62"/>
<polygon fill="black" stroke="black" points="427.97,-109.04 437.31,-104.05 426.89,-102.13 427.97,-109.04"/>
</g>
<!-- D2 -->
<g id="node6" class="node">
<title>D2</title>
<ellipse fill="none" stroke="black" cx="293.04" cy="-162" rx="96.68" ry="18"/>
<text text-anchor="middle" x="293.04" y="-158.3" font-family="Times,serif" font-size="14.00">Simulated Dataset</text>
</g>
<!-- D2&#45;&gt;C -->
<g id="edge5" class="edge">
<title>D2&#45;&gt;C</title>
<path fill="none" stroke="black" d="M341.05,-146.33C375.84,-135.69 423.17,-121.22 460.71,-109.75"/>
<polygon fill="black" stroke="black" points="461.98,-113.02 470.52,-106.75 459.93,-106.33 461.98,-113.02"/>
</g>
<!-- D3 -->
<g id="node7" class="node">
<title>D3</title>
<ellipse fill="none" stroke="black" cx="522.04" cy="-162" rx="114.28" ry="18"/>
<text text-anchor="middle" x="522.04" y="-158.3" font-family="Times,serif" font-size="14.00">Pedagogical Narrative</text>
</g>
<!-- D3&#45;&gt;C -->
<g id="edge6" class="edge">
<title>D3&#45;&gt;C</title>
<path fill="none" stroke="black" d="M522.04,-143.7C522.04,-135.98 522.04,-126.71 522.04,-118.11"/>
<polygon fill="black" stroke="black" points="525.54,-118.1 522.04,-108.1 518.54,-118.1 525.54,-118.1"/>
</g>
<!-- E1 -->
<g id="node8" class="node">
<title>E1</title>
<ellipse fill="none" stroke="black" cx="723.04" cy="-162" rx="68.49" ry="18"/>
<text text-anchor="middle" x="723.04" y="-158.3" font-family="Times,serif" font-size="14.00">Interactivity</text>
</g>
<!-- E1&#45;&gt;C -->
<g id="edge7" class="edge">
<title>E1&#45;&gt;C</title>
<path fill="none" stroke="black" d="M683.33,-147.17C653.13,-136.65 611.21,-122.05 577.67,-110.37"/>
<polygon fill="black" stroke="black" points="578.6,-106.99 568,-107.01 576.29,-113.6 578.6,-106.99"/>
</g>
</g>
</svg>
